<svg xmlns="http://www.w3.org/2000/svg" version="1.1" xmlns:xlink="http://www.w3.org/1999/xlink" xmlns:svgjs="http://svgjs.dev/svgjs" width="128" height="128" viewBox="0 0 128 128"><g transform="matrix(0.8046875,0,0,0.8046875,12.680228471735575,12.760752631578946)"><svg viewBox="0 0 95 95" data-background-color="#ffffff" preserveAspectRatio="xMidYMid meet" height="128" width="128" xmlns="http://www.w3.org/2000/svg" xmlns:xlink="http://www.w3.org/1999/xlink"><g id="tight-bounds" transform="matrix(1,0,0,1,-0.16623014383378631,-0.24049999999999727)"><svg viewBox="0 0 95.33246028766756 95.481" height="95.481" width="95.33246028766756"><g><svg viewBox="0 0 95.33246028766756 95.481" height="95.481" width="95.33246028766756"><g><svg viewBox="0 0 95.33246028766756 95.481" height="95.481" width="95.33246028766756"><g id="textblocktransform"><svg viewBox="0 0 95.33246028766756 95.481" height="95.481" width="95.33246028766756" id="textblock"><g><svg viewBox="0 0 95.33246028766756 95.481" height="95.481" width="95.33246028766756"><g><svg viewBox="0 0 95.33246028766756 95.481" height="95.481" width="95.33246028766756"><g><svg xmlns="http://www.w3.org/2000/svg" xmlns:xlink="http://www.w3.org/1999/xlink" version="1.1" x="0" y="0" viewBox="7.423 6.2613540730018045 103.744 103.90564592699818" enable-background="new 0 0 126 118" xml:space="preserve" height="95.481" width="95.33246028766756" class="icon-icon-0" data-fill-palette-color="accent" id="icon-0"><g fill="#000000" data-fill-palette-color="accent"><rect x="32.974" y="78.081" transform="matrix(0.7071 -0.7071 0.7071 0.7071 -44.6037 51.6502)" fill-rule="evenodd" clip-rule="evenodd" width="14.142" height="3.171" fill="#000000" data-fill-palette-color="accent"></rect><rect x="24.46" y="86.595" transform="matrix(-0.7071 -0.7071 0.7071 -0.7071 -21.7699 178.3156)" fill-rule="evenodd" clip-rule="evenodd" width="3.171" height="14.142" fill="#000000" data-fill-palette-color="accent"></rect><rect x="46.974" y="64.081" transform="matrix(-0.7071 0.7071 -0.7071 -0.7071 138.6945 73.8839)" fill-rule="evenodd" clip-rule="evenodd" width="14.142" height="3.171" fill="#000000" data-fill-palette-color="accent"></rect><rect x="60.974" y="50.081" transform="matrix(-0.7071 0.7071 -0.7071 -0.7071 152.6945 40.0849)" fill-rule="evenodd" clip-rule="evenodd" width="14.142" height="3.171" fill="#000000" data-fill-palette-color="accent"></rect><rect x="73.974" y="37.081" transform="matrix(-0.7071 0.7071 -0.7071 -0.7071 165.6945 8.7001)" fill-rule="evenodd" clip-rule="evenodd" width="14.142" height="3.171" fill="#000000" data-fill-palette-color="accent"></rect><path fill-rule="evenodd" clip-rule="evenodd" d="M37.559 74.253L13.371 50.069c-1.714-1.707-1.704-4.168-1.704-6.544v-0.567l0.007-26.143c0-3.391 2.767-6.149 6.155-6.149l26.139 0.004c0 0 5.067-0.104 8.574 3.402l22.724 22.475 3.183-3.182L56.263 11.427c-5.543-5.543-12.309-5.16-12.309-5.16l-26.12 0.025c-5.873 0-10.411 4.715-10.411 10.587l0.243 26.081v0.559c0 2.83-0.266 6.708 2.779 9.741l24.051 24.178L37.559 74.253z" fill="#000000" data-fill-palette-color="accent"></path><path fill-rule="evenodd" clip-rule="evenodd" d="M108.356 63.28l-22.01-22.015-3.183 3.182 22.014 22.018c0.96 0.958 1.489 2.233 1.489 3.59s-0.528 2.635-1.488 3.592l-30.521 30.531c-0.959 0.957-2.234 1.488-3.591 1.488s-2.632-0.531-3.591-1.488L45.457 82.154l-3.182 3.183 22.018 22.023c1.815 1.812 4.22 2.807 6.773 2.807s4.958-0.995 6.77-2.803l30.525-30.535c1.808-1.802 2.806-4.209 2.806-6.773C111.167 67.495 110.168 65.088 108.356 63.28z" fill="#000000" data-fill-palette-color="accent"></path><path fill-rule="evenodd" clip-rule="evenodd" d="M23.028 22.026c-3.424 3.424-3.424 8.999-0.001 12.426 1.662 1.659 3.865 2.574 6.211 2.574s4.55-0.915 6.208-2.574c3.421-3.426 3.424-9 0.001-12.426-1.657-1.658-3.862-2.574-6.207-2.574C26.892 19.452 24.686 20.366 23.028 22.026zM32.262 31.272c-0.819 0.82-1.865 1.254-3.024 1.254s-2.207-0.436-3.032-1.259c-1.666-1.669-1.667-4.389 0.004-6.06 0.821-0.823 1.869-1.256 3.031-1.256 1.141 0 2.215 0.446 3.023 1.255C33.934 26.878 33.933 29.599 32.262 31.272z" fill="#000000" data-fill-palette-color="accent"></path><rect x="93.46" y="17.595" transform="matrix(0.7071 0.7071 -0.7071 0.7071 45.28 -59.9826)" fill-rule="evenodd" clip-rule="evenodd" width="3.171" height="14.142" fill="#000000" data-fill-palette-color="accent"></rect></g></svg></g></svg></g></svg></g></svg></g></svg></g></svg></g><defs></defs></svg><rect width="95.33246028766756" height="95.481" fill="none" stroke="none" visibility="hidden"></rect></g></svg></g></svg>