<svg xmlns="http://www.w3.org/2000/svg" version="1.1" xmlns:xlink="http://www.w3.org/1999/xlink" xmlns:svgjs="http://svgjs.dev/svgjs" width="2000" height="232" viewBox="0 0 2000 232"><g transform="matrix(1,0,0,1,-1.2121212121213603,0.6183369582548153)"><svg viewBox="0 0 396 46" data-background-color="#ffffff" preserveAspectRatio="xMidYMid meet" height="232" width="2000" xmlns="http://www.w3.org/2000/svg" xmlns:xlink="http://www.w3.org/1999/xlink"><g id="tight-bounds" transform="matrix(1,0,0,1,0.24000000000003752,-0.12260129344707593)"><svg viewBox="0 0 395.5199999999999 46.24520258689413" height="46.24520258689413" width="395.5199999999999"><g><svg viewBox="0 0 457.28262233189065 53.46664519924273" height="46.24520258689413" width="395.5199999999999"><g transform="matrix(1,0,0,1,61.76262233189069,8.986590301249535)"><svg viewBox="0 0 395.52 35.49346459674366" height="35.49346459674366" width="395.52"><g id="textblocktransform"><svg viewBox="0 0 395.52 35.49346459674366" height="35.49346459674366" width="395.52" id="textblock"><g><svg viewBox="0 0 395.52 35.49346459674366" height="35.49346459674366" width="395.52"><g transform="matrix(1,0,0,1,0,0)"><svg width="395.52" viewBox="4.38 -32.29 366.76 32.92" height="35.49346459674366" data-palette-color="#000000"><path d="M8.33 0L4.38 0 4.38-31.25 8.33-31.25 8.33-21.04 19.44-21.04 19.44-31.25 23.4-31.25 23.4 0 19.44 0 19.44-17.5 8.33-17.5 8.33 0ZM32.39 0L28.4 0 41.63-32.29 41.7-32.29 54.93 0 50.73 0 47.05-9.27 36.11-9.27 32.39 0ZM39.89-18.75L37.43-12.57 45.73-12.57 43.26-18.75Q42.81-19.93 42.39-21.08 41.98-22.22 41.56-23.82L41.56-23.82Q41.14-22.22 40.76-21.09 40.38-19.97 39.89-18.75L39.89-18.75ZM82.43 0L77.6 0 64.3-19.27 75-31.25 79.65-31.25 69.02-19.31 82.43 0ZM63.88 0L59.93 0 59.93-31.25 63.88-31.25 63.88 0ZM103.05-27.71L94.71-27.71 94.71-31.25 115.34-31.25 115.34-27.71 107-27.71 107 0 103.05 0 103.05-27.71ZM125.33 0L121.38 0 121.38-31.25 125.33-31.25 125.33-21.04 136.45-21.04 136.45-31.25 140.4-31.25 140.4 0 136.45 0 136.45-17.5 125.33-17.5 125.33 0ZM153.21 0L149.26 0 149.26-31.25 157.1-31.25Q160.05-31.25 162.17-30.07 164.29-28.89 165.45-26.96 166.62-25.03 166.62-22.74L166.62-22.74Q166.62-20.17 165.16-18.13 163.7-16.08 161.17-15.1L161.17-15.1 171.65 0 167.03 0 157.1-14.38 153.21-14.38 153.21 0ZM153.21-27.71L153.21-17.71 157.1-17.71Q159.12-17.71 160.38-18.45 161.65-19.2 162.26-20.36 162.87-21.53 162.87-22.74L162.87-22.74Q162.87-24.93 161.29-26.32 159.71-27.71 157.1-27.71L157.1-27.71 153.21-27.71ZM180.61 0L176.65 0 176.65-31.25 180.61-31.25 180.61 0ZM193.73 0L189.77 0 189.77-31.25 205.19-31.25 205.19-27.71 193.73-27.71 193.73-21.04 204.15-21.04 204.15-17.5 193.73-17.5 193.73 0ZM216.23-27.71L207.89-27.71 207.89-31.25 228.52-31.25 228.52-27.71 220.19-27.71 220.19 0 216.23 0 216.23-27.71ZM251.71 0.42L251.71 0.42Q248.93 0.42 246.69-0.69 244.45-1.81 243.13-3.4L243.13-3.4 244.28-8.19Q245.25-6.25 247.19-4.69 249.14-3.13 251.85-3.13L251.85-3.13Q254.31-3.13 255.93-4.69 257.54-6.25 257.54-8.54L257.54-8.54Q257.54-10.21 256.74-11.28 255.94-12.36 254.94-12.99 253.93-13.61 253.34-13.89L253.34-13.89 249.52-15.83Q248.62-16.32 247.28-17.19 245.94-18.06 244.94-19.58 243.93-21.11 243.93-23.54L243.93-23.54Q243.93-25.9 245.02-27.74 246.12-29.58 248.08-30.63 250.04-31.67 252.58-31.67L252.58-31.67Q255.08-31.67 256.99-30.78 258.9-29.9 259.97-28.96L259.97-28.96 258.83-24.17Q257.96-25.63 256.26-26.91 254.56-28.19 252.4-28.19L252.4-28.19Q250.32-28.19 249.07-26.96 247.82-25.73 247.82-23.92L247.82-23.92Q247.82-22.53 248.46-21.63 249.1-20.73 249.92-20.21 250.74-19.69 251.26-19.41L251.26-19.41 255.15-17.47Q255.84-17.12 256.9-16.49 257.96-15.87 259-14.84 260.04-13.82 260.74-12.34 261.43-10.87 261.43-8.78L261.43-8.78Q261.43-6.11 260.16-4.03 258.9-1.94 256.71-0.76 254.52 0.42 251.71 0.42ZM273.51-27.71L265.18-27.71 265.18-31.25 285.8-31.25 285.8-27.71 277.47-27.71 277.47 0 273.51 0 273.51-27.71ZM305.87 0.63L305.87 0.63Q302.5 0.63 299.53-0.64 296.56-1.91 294.33-4.13 292.09-6.35 290.82-9.31 289.55-12.26 289.55-15.63L289.55-15.63Q289.55-18.99 290.82-21.94 292.09-24.9 294.33-27.12 296.56-29.34 299.53-30.61 302.5-31.88 305.87-31.88L305.87-31.88Q309.27-31.88 312.22-30.61 315.18-29.34 317.42-27.12 319.66-24.9 320.92-21.94 322.19-18.99 322.19-15.63L322.19-15.63Q322.19-12.26 320.92-9.31 319.66-6.35 317.42-4.13 315.18-1.91 312.22-0.64 309.27 0.63 305.87 0.63ZM305.87-3.13L305.87-3.13Q309.31-3.13 312.09-4.81 314.86-6.49 316.48-9.34 318.09-12.19 318.09-15.63L318.09-15.63Q318.09-19.1 316.48-21.93 314.86-24.76 312.09-26.44 309.31-28.13 305.87-28.13L305.87-28.13Q302.43-28.13 299.67-26.44 296.91-24.76 295.28-21.93 293.65-19.1 293.65-15.63L293.65-15.63Q293.65-12.19 295.28-9.34 296.91-6.49 299.67-4.81 302.43-3.13 305.87-3.13ZM332.71 0L328.75 0 328.75-31.25 336.6-31.25Q339.55-31.25 341.67-30.07 343.78-28.89 344.95-26.96 346.11-25.03 346.11-22.74L346.11-22.74Q346.11-20.17 344.65-18.13 343.19-16.08 340.66-15.1L340.66-15.1 351.15 0 346.53 0 336.6-14.38 332.71-14.38 332.71 0ZM332.71-27.71L332.71-17.71 336.6-17.71Q338.61-17.71 339.88-18.45 341.15-19.2 341.75-20.36 342.36-21.53 342.36-22.74L342.36-22.74Q342.36-24.93 340.78-26.32 339.2-27.71 336.6-27.71L336.6-27.71 332.71-27.71ZM371.14 0L355.73 0 355.73-31.25 371.14-31.25 371.14-27.71 359.68-27.71 359.68-21.04 368.71-21.04 368.71-17.5 359.68-17.5 359.68-3.54 371.14-3.54 371.14 0Z" opacity="1" transform="matrix(1,0,0,1,0,0)" fill="#000000" class="wordmark-text-0" data-fill-palette-color="primary" id="text-0"></path></svg></g></svg></g></svg></g></svg></g><g><svg viewBox="0 0 53.383467183749836 53.46664519924273" height="53.46664519924273" width="53.383467183749836"><g><svg xmlns="http://www.w3.org/2000/svg" xmlns:xlink="http://www.w3.org/1999/xlink" version="1.1" x="0" y="0" viewBox="7.423 6.2613540730018045 103.744 103.90564592699818" enable-background="new 0 0 126 118" xml:space="preserve" height="53.46664519924273" width="53.383467183749836" class="icon-icon-0" data-fill-palette-color="accent" id="icon-0"><g fill="#000000" data-fill-palette-color="accent"><rect x="32.974" y="78.081" transform="matrix(0.7071 -0.7071 0.7071 0.7071 -44.6037 51.6502)" fill-rule="evenodd" clip-rule="evenodd" width="14.142" height="3.171" fill="#000000" data-fill-palette-color="accent"></rect><rect x="24.46" y="86.595" transform="matrix(-0.7071 -0.7071 0.7071 -0.7071 -21.7699 178.3156)" fill-rule="evenodd" clip-rule="evenodd" width="3.171" height="14.142" fill="#000000" data-fill-palette-color="accent"></rect><rect x="46.974" y="64.081" transform="matrix(-0.7071 0.7071 -0.7071 -0.7071 138.6945 73.8839)" fill-rule="evenodd" clip-rule="evenodd" width="14.142" height="3.171" fill="#000000" data-fill-palette-color="accent"></rect><rect x="60.974" y="50.081" transform="matrix(-0.7071 0.7071 -0.7071 -0.7071 152.6945 40.0849)" fill-rule="evenodd" clip-rule="evenodd" width="14.142" height="3.171" fill="#000000" data-fill-palette-color="accent"></rect><rect x="73.974" y="37.081" transform="matrix(-0.7071 0.7071 -0.7071 -0.7071 165.6945 8.7001)" fill-rule="evenodd" clip-rule="evenodd" width="14.142" height="3.171" fill="#000000" data-fill-palette-color="accent"></rect><path fill-rule="evenodd" clip-rule="evenodd" d="M37.559 74.253L13.371 50.069c-1.714-1.707-1.704-4.168-1.704-6.544v-0.567l0.007-26.143c0-3.391 2.767-6.149 6.155-6.149l26.139 0.004c0 0 5.067-0.104 8.574 3.402l22.724 22.475 3.183-3.182L56.263 11.427c-5.543-5.543-12.309-5.16-12.309-5.16l-26.12 0.025c-5.873 0-10.411 4.715-10.411 10.587l0.243 26.081v0.559c0 2.83-0.266 6.708 2.779 9.741l24.051 24.178L37.559 74.253z" fill="#000000" data-fill-palette-color="accent"></path><path fill-rule="evenodd" clip-rule="evenodd" d="M108.356 63.28l-22.01-22.015-3.183 3.182 22.014 22.018c0.96 0.958 1.489 2.233 1.489 3.59s-0.528 2.635-1.488 3.592l-30.521 30.531c-0.959 0.957-2.234 1.488-3.591 1.488s-2.632-0.531-3.591-1.488L45.457 82.154l-3.182 3.183 22.018 22.023c1.815 1.812 4.22 2.807 6.773 2.807s4.958-0.995 6.77-2.803l30.525-30.535c1.808-1.802 2.806-4.209 2.806-6.773C111.167 67.495 110.168 65.088 108.356 63.28z" fill="#000000" data-fill-palette-color="accent"></path><path fill-rule="evenodd" clip-rule="evenodd" d="M23.028 22.026c-3.424 3.424-3.424 8.999-0.001 12.426 1.662 1.659 3.865 2.574 6.211 2.574s4.55-0.915 6.208-2.574c3.421-3.426 3.424-9 0.001-12.426-1.657-1.658-3.862-2.574-6.207-2.574C26.892 19.452 24.686 20.366 23.028 22.026zM32.262 31.272c-0.819 0.82-1.865 1.254-3.024 1.254s-2.207-0.436-3.032-1.259c-1.666-1.669-1.667-4.389 0.004-6.06 0.821-0.823 1.869-1.256 3.031-1.256 1.141 0 2.215 0.446 3.023 1.255C33.934 26.878 33.933 29.599 32.262 31.272z" fill="#000000" data-fill-palette-color="accent"></path><rect x="93.46" y="17.595" transform="matrix(0.7071 0.7071 -0.7071 0.7071 45.28 -59.9826)" fill-rule="evenodd" clip-rule="evenodd" width="3.171" height="14.142" fill="#000000" data-fill-palette-color="accent"></rect></g></svg></g></svg></g></svg></g><defs></defs></svg><rect width="395.5199999999999" height="46.24520258689413" fill="none" stroke="none" visibility="hidden"></rect></g></svg></g></svg>